<svg width="289" height="52" viewBox="0 0 289 52" fill="none" xmlns="http://www.w3.org/2000/svg">
<path d="M195.149 23.1428C194.159 23.1428 193.229 23.1628 192.289 23.1428C191.089 23.1128 190.369 22.5028 190.089 21.3128C189.539 18.9528 190.109 17.6128 192.229 16.5928C194.849 15.3228 196.269 13.1328 197.019 10.4228C197.219 9.70278 197.339 8.96278 197.499 8.23278C198.059 5.71278 200.919 4.40278 203.159 5.77278C203.739 6.13278 204.199 7.11278 204.249 7.84278C204.389 10.1828 204.369 12.5328 204.289 14.8728C204.249 16.0828 204.579 16.5528 205.869 16.5028C208.409 16.4128 210.959 16.4128 213.499 16.5128C215.329 16.5828 216.849 15.9228 217.729 14.4628C218.759 12.7428 219.649 10.8528 220.149 8.92278C220.939 5.86278 221.779 5.06278 224.889 5.38278C226.509 5.55278 227.189 6.24278 227.229 7.90278C227.279 10.0428 227.259 12.1928 227.259 14.3328C227.259 16.4728 227.259 16.4828 229.479 16.4828C230.929 16.4828 232.369 16.4428 233.819 16.4728C235.899 16.5128 236.609 17.4628 236.569 20.0228C236.529 22.2828 235.749 23.1528 233.709 23.1528C231.959 23.1528 230.219 23.1728 228.469 23.1228C227.599 23.1028 227.219 23.3728 227.229 24.3128C227.269 29.2028 227.189 34.0928 227.289 38.9728C227.369 42.9428 229.579 44.5628 233.419 43.5728C234.699 43.2428 235.919 42.6728 236.709 44.3628C237.629 46.3428 237.389 48.3628 235.919 49.3728C232.199 51.9128 224.749 52.4828 220.999 48.2428C219.319 46.3428 218.479 44.1228 218.399 41.7128C218.209 36.1328 218.169 30.5528 218.189 24.9628C218.189 23.5228 217.819 23.0728 216.359 23.1128C212.869 23.2128 209.369 23.1628 205.879 23.1128C204.789 23.0928 204.269 23.3228 204.289 24.5828C204.359 29.1228 204.309 33.6628 204.309 38.1928C204.309 38.4928 204.319 38.7928 204.349 39.0928C204.779 43.3128 206.999 44.7428 211.059 43.4428C212.809 42.8828 213.659 43.3428 214.129 45.1328C214.819 47.7228 214.209 49.0728 211.719 50.1528C208.799 51.4128 205.749 51.7328 202.649 50.9328C198.679 49.9028 196.089 46.8628 195.649 42.3828C195.369 39.5628 195.399 36.7128 195.359 33.8728C195.309 30.5328 195.339 27.1928 195.319 23.8528C195.319 23.7028 195.249 23.5628 195.149 23.1428Z" fill="#E8F5E9"/>
<path d="M122.06 20.1228C122.48 19.8528 122.69 19.7328 122.88 19.5828C132.55 11.7928 145.49 16.1728 148.36 28.2528C149.65 33.6928 149.09 38.9428 146.17 43.8328C141.2 52.1428 129.45 53.9828 122.14 47.5928C121.92 47.4028 121.68 47.2528 121.4 47.0428C121.22 47.3128 121.07 47.5028 120.96 47.7228C119.15 51.1528 118.52 50.9328 114.63 50.7628C113.29 50.7028 112.97 49.7528 112.98 48.5528C113.01 43.0128 113.02 37.4828 113.02 31.9428C113.02 25.3128 113.08 18.6728 112.94 12.0428C112.89 9.68278 112.39 7.31278 111.93 4.97278C111.58 3.18278 111.81 1.94278 113.44 1.21278C114.81 0.592779 116.36 0.172779 117.86 0.0827788C119.84 -0.0372212 121.1 1.00278 121.42 3.00278C121.78 5.25278 121.91 7.55278 121.97 9.84278C122.05 12.6828 121.95 15.5228 121.95 18.3728C121.95 18.8928 122.02 19.4128 122.06 20.1228ZM139.94 32.8528C139.71 31.9328 139.48 30.0728 138.79 28.4028C137.37 24.9728 134.69 23.0128 130.92 23.0128C127.16 23.0128 124.46 24.9128 122.99 28.3428C121.39 32.0628 121.47 35.8328 123.32 39.4528C125.8 44.3028 132.14 45.6028 136.35 42.1428C138.98 39.9928 139.81 37.0228 139.94 32.8528Z" fill="#E8F5E9"/>
<path d="M89.4904 8.21278C92.3504 13.2928 96.8404 16.4428 100.93 19.9828C104.09 22.7128 106.53 25.9228 107.55 30.0728C109.99 40.0028 103.38 49.6928 93.2304 51.0928C88.2904 51.7728 83.6004 51.2928 79.2204 48.6928C70.7704 43.6828 68.2804 32.2528 74.2004 24.3828C76.1204 21.8328 78.6304 19.6728 81.0704 17.5628C84.2104 14.8528 87.3604 12.1928 89.4904 8.21278ZM89.5204 18.0728C87.1304 21.3028 84.5304 24.6228 82.1504 28.0928C81.2104 29.4528 80.5204 31.0828 80.1304 32.6928C78.8904 37.7328 82.4204 42.9428 87.6104 44.0028C92.8604 45.0628 97.9104 41.6828 98.9004 36.5228C99.6004 32.8728 98.2304 29.8828 96.1704 27.0728C93.9504 24.0228 91.6904 21.0028 89.5204 18.0728Z" fill="#E8F5E9"/>
<path d="M170.76 15.7328C176.74 15.9028 181.76 17.5528 185.36 22.1128C189.7 27.6228 190.42 33.8628 187.98 40.3128C185.59 46.6328 180.73 50.1528 174.06 51.1028C167.14 52.0828 160.96 50.5228 156.41 44.9628C152.04 39.6228 151.41 33.4128 153.63 27.0428C155.87 20.6228 160.74 17.1528 167.37 16.0628C168.6 15.8728 169.85 15.8228 170.76 15.7328ZM180.37 33.6228C179.86 31.7628 179.55 29.7628 178.76 27.9828C177.29 24.6828 174.56 23.0028 170.92 22.9528C167.31 22.9028 164.499 24.4028 162.899 27.6828C160.859 31.8428 161.13 36.0128 163.5 39.9628C165.42 43.1728 168.46 44.2928 172.07 43.9628C175.47 43.6528 177.84 41.8028 179.08 38.6828C179.69 37.1528 179.92 35.4528 180.37 33.6228Z" fill="#E8F5E9"/>
<path d="M265.129 36.9028C265.889 40.6228 269.569 43.5928 273.779 43.9428C277.259 44.2328 280.529 43.5928 283.569 41.8728C284.769 41.1928 285.939 40.4228 287.109 41.9328C288.279 43.4328 288.499 45.5128 287.289 46.7428C286.259 47.7828 285.039 48.7928 283.719 49.3828C277.299 52.2028 270.799 52.2728 264.519 49.0528C257.929 45.6728 254.629 38.9628 255.589 31.6028C256.589 23.9228 261.619 18.2328 269.099 16.4328C275.389 14.9128 281.369 16.1228 287.129 18.7628C287.559 18.9628 287.999 19.6328 288.029 20.1028C288.579 29.9528 283.419 37.1328 273.099 37.3728C270.489 37.4328 267.859 37.0728 265.129 36.9028ZM279.779 23.0928C271.279 20.6328 263.389 25.9628 264.839 33.1028C271.669 33.5828 275.919 30.0728 279.779 23.0928Z" fill="#E8F5E9"/>
<path d="M9.56972 36.7028C10.4797 40.9228 14.0797 43.6428 18.7597 43.9628C22.0497 44.1828 25.0997 43.4628 27.9797 41.9228C30.0597 40.8128 30.7797 40.8328 31.6297 42.0228C32.8697 43.7328 32.7897 45.8828 31.3797 47.2028C29.1497 49.2828 26.4197 50.3828 23.4897 50.8928C17.1497 52.0128 11.1297 51.2928 5.94972 47.0828C0.999717 43.0728 -0.570283 37.6228 0.169717 31.5528C1.28972 22.3728 8.16972 16.2728 17.4897 15.8228C22.3197 15.5928 26.9097 16.5928 31.2897 18.5928C31.7997 18.8228 32.4197 19.3828 32.5097 19.8828C33.5397 25.4428 30.4397 32.2928 25.6897 35.1428C21.5597 37.6228 17.0697 37.6528 12.4897 37.1428C11.5697 37.0428 10.6497 36.8728 9.56972 36.7028ZM9.08972 33.0528C14.7597 33.9728 21.4797 29.5228 24.1597 23.1728C15.6597 20.6328 8.90972 25.1628 9.08972 33.0528Z" fill="#E8F5E9"/>
<path d="M54.9291 15.7628C57.8791 15.8228 61.1791 16.3128 64.1391 18.0528C66.5391 19.4628 68.2791 21.3828 68.0191 24.4328C67.8691 26.1728 66.7091 27.5428 65.0591 27.9928C63.0691 28.5328 61.3791 28.0528 60.3591 26.6628C56.5391 21.4428 49.8991 21.7828 46.5691 27.3728C43.7591 32.0528 44.9991 38.9928 49.2991 41.9028C53.0691 44.4628 57.1291 44.1628 61.1791 42.6028C62.1491 42.2328 63.0691 41.6828 63.9291 41.1028C65.1291 40.3028 66.2191 39.9328 67.3891 41.1428C68.6291 42.4228 69.0291 44.3628 68.0891 45.6428C67.4791 46.4728 66.7291 47.2528 65.8891 47.8628C60.8591 51.5128 55.2391 52.0928 49.3491 50.7628C41.8191 49.0628 36.7791 43.2828 35.9891 35.5728C35.1591 27.5928 38.8191 20.7828 45.7691 17.5128C48.5191 16.2328 51.4691 15.7728 54.9291 15.7628Z" fill="#E8F5E9"/>
<path d="M250.61 24.2128C250.61 30.3428 250.54 36.4728 250.67 42.5928C250.7 43.8628 251.3 45.1828 251.9 46.3528C252.81 48.1228 252.6 49.3728 250.9 50.4028C246.89 52.8328 242.5 50.9128 241.72 46.3228C241.47 44.8628 241.41 43.3528 241.41 41.8628C241.38 32.2928 241.48 22.7228 241.35 13.1528C241.31 10.3928 240.75 7.63278 240.27 4.90278C239.96 3.09278 240.33 1.92278 241.97 1.04278C242.58 0.712778 243.24 0.452778 243.91 0.292778C247.62 -0.627222 249.6 0.592778 250.2 4.35278C250.48 6.11278 250.45 7.93278 250.46 9.72278C250.49 14.5528 250.47 19.3928 250.47 24.2228C250.52 24.2128 250.56 24.2128 250.61 24.2128Z" fill="#E8F5E9"/>
<path d="M83.9889 30.3928C84.2189 36.1328 87.0989 39.6828 92.8189 40.9628C89.8089 42.5828 86.0989 41.6528 83.9689 38.9128C81.9389 36.3128 81.9189 32.7028 83.9889 30.3928Z" fill="#E8F5E9"/>
</svg>
