<svg width="36" height="34" viewBox="0 0 36 34" fill="none" xmlns="http://www.w3.org/2000/svg">
<path d="M15.8205 1.38193C16.4192 -0.460688 19.0261 -0.460688 19.6248 1.38193L22.4375 10.0385C22.7052 10.8625 23.4731 11.4204 24.3396 11.4204H33.4416C35.379 11.4204 36.1846 13.8997 34.6172 15.0385L27.2535 20.3885C26.5525 20.8978 26.2592 21.8005 26.5269 22.6246L29.3396 31.2811C29.9383 33.1237 27.8293 34.656 26.2619 33.5172L18.8982 28.1671C18.1973 27.6579 17.2481 27.6579 16.5471 28.1672L9.18339 33.5172C7.61597 34.656 5.507 33.1237 6.10571 31.2811L8.91839 22.6246C9.18614 21.8005 8.89282 20.8978 8.19185 20.3885L0.828154 15.0385C-0.739274 13.8997 0.0662756 11.4204 2.00372 11.4204H11.1057C11.9722 11.4204 12.7401 10.8625 13.0079 10.0385L15.8205 1.38193Z" fill="#2E7D32"/>
</svg>
